<?xml version="1.0" encoding="UTF-8"?>
<svg id="_レイヤー_1" data-name="レイヤー 1" xmlns="http://www.w3.org/2000/svg" xmlns:xlink="http://www.w3.org/1999/xlink" viewBox="0 0 343 212">
  <defs>
    <style>
      .cls-1 {
        stroke-miterlimit: 10;
        stroke-width: 2px;
      }

      .cls-1, .cls-2 {
        stroke: #84a2d4;
      }

      .cls-1, .cls-2, .cls-3, .cls-4 {
        fill: none;
      }

      .cls-5, .cls-6, .cls-7 {
        fill: #fff;
      }

      .cls-8 {
        fill: url(#_新規パターンスウォッチ_2);
      }

      .cls-9 {
        fill: url(#_10_dpi_20_2-3);
      }

      .cls-2 {
        stroke-width: .5px;
      }

      .cls-10 {
        fill: url(#_10_dpi_20_2);
      }

      .cls-11 {
        fill: url(#_10_dpi_20_4);
      }

      .cls-12 {
        fill: #e1e6ef;
      }

      .cls-6 {
        opacity: .69;
      }

      .cls-13 {
        fill: url(#_10_dpi_20_2-2);
      }

      .cls-4 {
        stroke: #fff;
        stroke-width: .75px;
      }

      .cls-14 {
        fill: url(#_10_dpi_20_3);
      }

      .cls-7, .cls-15 {
        font-family: AcuminConcept-WideUltraBlackItalic, 'Acumin Variable Concept';
        font-size: 28px;
        font-style: italic;
        font-variation-settings: 'wght' 900, 'wdth' 115, 'slnt' 12;
        font-weight: 800;
      }

      .cls-15 {
        opacity: .8;
      }

      .cls-15, .cls-16 {
        fill: #84a2d4;
      }
    </style>
    <pattern id="_10_dpi_20_2" data-name="10 dpi 20% 2" x="0" y="0" width="28.8" height="28.8" patternTransform="translate(-3486.18 -3879.65) scale(.39)" patternUnits="userSpaceOnUse" viewBox="0 0 28.8 28.8">
      <g>
        <rect class="cls-3" x="0" y="0" width="28.8" height="28.8"/>
        <g>
          <path class="cls-16" d="m28.8,30.24c.8,0,1.44-.64,1.44-1.44s-.64-1.44-1.44-1.44-1.44.64-1.44,1.44.64,1.44,1.44,1.44Z"/>
          <path class="cls-16" d="m14.4,30.24c.8,0,1.44-.64,1.44-1.44s-.65-1.44-1.44-1.44-1.44.64-1.44,1.44.64,1.44,1.44,1.44Z"/>
          <path class="cls-16" d="m28.8,15.84c.8,0,1.44-.65,1.44-1.44s-.64-1.44-1.44-1.44-1.44.64-1.44,1.44.64,1.44,1.44,1.44Z"/>
          <path class="cls-16" d="m14.4,15.84c.8,0,1.44-.65,1.44-1.44s-.65-1.44-1.44-1.44-1.44.64-1.44,1.44.64,1.44,1.44,1.44Z"/>
          <path class="cls-16" d="m7.2,23.04c.79,0,1.44-.64,1.44-1.44s-.65-1.44-1.44-1.44-1.44.64-1.44,1.44.64,1.44,1.44,1.44Z"/>
          <path class="cls-16" d="m21.6,23.04c.8,0,1.44-.64,1.44-1.44s-.65-1.44-1.44-1.44-1.44.64-1.44,1.44.64,1.44,1.44,1.44Z"/>
          <path class="cls-16" d="m7.2,8.64c.79,0,1.44-.64,1.44-1.44s-.65-1.44-1.44-1.44-1.44.64-1.44,1.44.64,1.44,1.44,1.44Z"/>
          <path class="cls-16" d="m21.6,8.64c.8,0,1.44-.64,1.44-1.44s-.65-1.44-1.44-1.44-1.44.64-1.44,1.44.64,1.44,1.44,1.44Z"/>
        </g>
        <g>
          <path class="cls-16" d="m0,30.24c.79,0,1.44-.64,1.44-1.44s-.64-1.44-1.44-1.44-1.44.64-1.44,1.44.64,1.44,1.44,1.44Z"/>
          <path class="cls-16" d="m0,15.84c.79,0,1.44-.65,1.44-1.44s-.64-1.44-1.44-1.44-1.44.64-1.44,1.44.64,1.44,1.44,1.44Z"/>
        </g>
        <g>
          <path class="cls-16" d="m28.8,1.44c.8,0,1.44-.64,1.44-1.44s-.64-1.44-1.44-1.44-1.44.64-1.44,1.44.64,1.44,1.44,1.44Z"/>
          <path class="cls-16" d="m14.4,1.44c.8,0,1.44-.64,1.44-1.44s-.65-1.44-1.44-1.44-1.44.64-1.44,1.44.64,1.44,1.44,1.44Z"/>
        </g>
        <path class="cls-16" d="m0,1.44c.79,0,1.44-.64,1.44-1.44S.79-1.44,0-1.44-1.44-.8-1.44,0-.8,1.44,0,1.44Z"/>
      </g>
    </pattern>
    <pattern id="_新規パターンスウォッチ_2" data-name="新規パターンスウォッチ 2" x="0" y="0" width="168" height="10" patternTransform="translate(-3192.98 -3777.57) scale(.42 .4)" patternUnits="userSpaceOnUse" viewBox="0 0 168 10">
      <g>
        <rect class="cls-3" width="168" height="10"/>
        <rect class="cls-16" width="168" height="5"/>
        <rect class="cls-5" y="5" width="168" height="5"/>
      </g>
    </pattern>
    <pattern id="_10_dpi_20_3" data-name="10 dpi 20% 3" x="0" y="0" width="28.8" height="28.8" patternTransform="translate(-3500.38 -3878.76) scale(.39)" patternUnits="userSpaceOnUse" viewBox="0 0 28.8 28.8">
      <g>
        <rect class="cls-3" x="0" y="0" width="28.8" height="28.8"/>
        <g>
          <path class="cls-5" d="m28.8,30.24c.8,0,1.44-.64,1.44-1.44s-.64-1.44-1.44-1.44-1.44.64-1.44,1.44.64,1.44,1.44,1.44Z"/>
          <path class="cls-5" d="m14.4,30.24c.8,0,1.44-.64,1.44-1.44s-.65-1.44-1.44-1.44-1.44.64-1.44,1.44.64,1.44,1.44,1.44Z"/>
          <path class="cls-5" d="m28.8,15.84c.8,0,1.44-.65,1.44-1.44s-.64-1.44-1.44-1.44-1.44.64-1.44,1.44.64,1.44,1.44,1.44Z"/>
          <path class="cls-5" d="m14.4,15.84c.8,0,1.44-.65,1.44-1.44s-.65-1.44-1.44-1.44-1.44.64-1.44,1.44.64,1.44,1.44,1.44Z"/>
          <path class="cls-5" d="m7.2,23.04c.79,0,1.44-.64,1.44-1.44s-.65-1.44-1.44-1.44-1.44.64-1.44,1.44.64,1.44,1.44,1.44Z"/>
          <path class="cls-5" d="m21.6,23.04c.8,0,1.44-.64,1.44-1.44s-.65-1.44-1.44-1.44-1.44.64-1.44,1.44.64,1.44,1.44,1.44Z"/>
          <path class="cls-5" d="m7.2,8.64c.79,0,1.44-.64,1.44-1.44s-.65-1.44-1.44-1.44-1.44.64-1.44,1.44.64,1.44,1.44,1.44Z"/>
          <path class="cls-5" d="m21.6,8.64c.8,0,1.44-.64,1.44-1.44s-.65-1.44-1.44-1.44-1.44.64-1.44,1.44.64,1.44,1.44,1.44Z"/>
        </g>
        <g>
          <path class="cls-5" d="m0,30.24c.79,0,1.44-.64,1.44-1.44s-.64-1.44-1.44-1.44-1.44.64-1.44,1.44.64,1.44,1.44,1.44Z"/>
          <path class="cls-5" d="m0,15.84c.79,0,1.44-.65,1.44-1.44s-.64-1.44-1.44-1.44-1.44.64-1.44,1.44.64,1.44,1.44,1.44Z"/>
        </g>
        <g>
          <path class="cls-5" d="m28.8,1.44c.8,0,1.44-.64,1.44-1.44s-.64-1.44-1.44-1.44-1.44.64-1.44,1.44.64,1.44,1.44,1.44Z"/>
          <path class="cls-5" d="m14.4,1.44c.8,0,1.44-.64,1.44-1.44s-.65-1.44-1.44-1.44-1.44.64-1.44,1.44.64,1.44,1.44,1.44Z"/>
        </g>
        <path class="cls-5" d="m0,1.44c.79,0,1.44-.64,1.44-1.44S.79-1.44,0-1.44-1.44-.8-1.44,0-.8,1.44,0,1.44Z"/>
      </g>
    </pattern>
    <pattern id="_10_dpi_20_2-2" data-name="10 dpi 20% 2" patternTransform="translate(-3518.69 -3868.65) scale(.39)" xlink:href="#_10_dpi_20_2"/>
    <pattern id="_10_dpi_20_4" data-name="10 dpi 20% 4" x="0" y="0" width="28.8" height="28.8" patternTransform="translate(-3513.71 -3901.54) scale(.39)" patternUnits="userSpaceOnUse" viewBox="0 0 28.8 28.8">
      <g>
        <rect class="cls-3" x="0" y="0" width="28.8" height="28.8"/>
        <g>
          <path class="cls-5" d="m28.8,30.24c.8,0,1.44-.64,1.44-1.44s-.64-1.44-1.44-1.44-1.44.64-1.44,1.44.64,1.44,1.44,1.44Z"/>
          <path class="cls-5" d="m14.4,30.24c.8,0,1.44-.64,1.44-1.44s-.65-1.44-1.44-1.44-1.44.64-1.44,1.44.64,1.44,1.44,1.44Z"/>
          <path class="cls-5" d="m28.8,15.84c.8,0,1.44-.65,1.44-1.44s-.64-1.44-1.44-1.44-1.44.64-1.44,1.44.64,1.44,1.44,1.44Z"/>
          <path class="cls-5" d="m14.4,15.84c.8,0,1.44-.65,1.44-1.44s-.65-1.44-1.44-1.44-1.44.64-1.44,1.44.64,1.44,1.44,1.44Z"/>
          <path class="cls-5" d="m7.2,23.04c.79,0,1.44-.64,1.44-1.44s-.65-1.44-1.44-1.44-1.44.64-1.44,1.44.64,1.44,1.44,1.44Z"/>
          <path class="cls-5" d="m21.6,23.04c.8,0,1.44-.64,1.44-1.44s-.65-1.44-1.44-1.44-1.44.64-1.44,1.44.64,1.44,1.44,1.44Z"/>
          <path class="cls-5" d="m7.2,8.64c.79,0,1.44-.64,1.44-1.44s-.65-1.44-1.44-1.44-1.44.64-1.44,1.44.64,1.44,1.44,1.44Z"/>
          <path class="cls-5" d="m21.6,8.64c.8,0,1.44-.64,1.44-1.44s-.65-1.44-1.44-1.44-1.44.64-1.44,1.44.64,1.44,1.44,1.44Z"/>
        </g>
        <g>
          <path class="cls-5" d="m0,30.24c.79,0,1.44-.64,1.44-1.44s-.64-1.44-1.44-1.44-1.44.64-1.44,1.44.64,1.44,1.44,1.44Z"/>
          <path class="cls-5" d="m0,15.84c.79,0,1.44-.65,1.44-1.44s-.64-1.44-1.44-1.44-1.44.64-1.44,1.44.64,1.44,1.44,1.44Z"/>
        </g>
        <g>
          <path class="cls-5" d="m28.8,1.44c.8,0,1.44-.64,1.44-1.44s-.64-1.44-1.44-1.44-1.44.64-1.44,1.44.64,1.44,1.44,1.44Z"/>
          <path class="cls-5" d="m14.4,1.44c.8,0,1.44-.64,1.44-1.44s-.65-1.44-1.44-1.44-1.44.64-1.44,1.44.64,1.44,1.44,1.44Z"/>
        </g>
        <path class="cls-5" d="m0,1.44c.79,0,1.44-.64,1.44-1.44S.79-1.44,0-1.44-1.44-.8-1.44,0-.8,1.44,0,1.44Z"/>
      </g>
    </pattern>
    <pattern id="_10_dpi_20_2-3" data-name="10 dpi 20% 2" patternTransform="translate(-3008.05 -3336.96) scale(.46)" xlink:href="#_10_dpi_20_2"/>
  </defs>
  <rect class="cls-12" width="343" height="212"/>
  <g>
    <line class="cls-2" x1="243.25" y1="-23.79" x2="331.19" y2="26.98"/>
    <line class="cls-2" x1="240.87" y1="-19.67" x2="328.81" y2="31.1"/>
    <line class="cls-2" x1="238.49" y1="-15.55" x2="326.43" y2="35.23"/>
    <line class="cls-2" x1="236.11" y1="-11.42" x2="324.05" y2="39.35"/>
    <line class="cls-2" x1="233.73" y1="-7.3" x2="321.67" y2="43.48"/>
    <line class="cls-2" x1="231.34" y1="-3.17" x2="319.29" y2="47.6"/>
    <line class="cls-2" x1="228.96" y1=".95" x2="316.91" y2="51.73"/>
  </g>
  <circle class="cls-6" cx="171.5" cy="106" r="83.72"/>
  <path class="cls-10" d="m209.56,31.58c27.24,13.81,45.91,42.06,45.91,74.69,0,46.24-37.48,83.72-83.72,83.72-5.2,0-10.28-.5-15.22-1.41,9.13,3.46,19.02,5.37,29.36,5.37,45.79,0,82.91-37.12,82.91-82.91,0-37.56-24.99-69.27-59.24-79.46Z"/>
  <polyline class="cls-3" points="532.78 -95.71 532.78 339.4 -171.19 339.4 -171.19 -95.71"/>
  <g>
    <path class="cls-8" d="m136.44,63.68v19.87h6.32c3.01-2.35,6.84-3.78,11.01-3.78s8.08,1.42,11.1,3.78h12.95c3.01-2.35,6.84-3.78,11.01-3.78s8.08,1.42,11.1,3.78h6.64v-19.87h-70.13Z"/>
    <g>
      <circle class="cls-1" cx="154.31" cy="98.87" r="15.86"/>
      <circle class="cls-1" cx="154.31" cy="98.87" r="11.9"/>
      <circle class="cls-1" cx="154.31" cy="98.87" r="7.93"/>
      <circle class="cls-1" cx="154.31" cy="98.87" r="3.97"/>
    </g>
    <g>
      <circle class="cls-1" cx="188.94" cy="98.87" r="15.86"/>
      <circle class="cls-1" cx="188.94" cy="98.87" r="11.9"/>
      <circle class="cls-1" cx="188.94" cy="98.87" r="7.93"/>
      <circle class="cls-1" cx="188.94" cy="98.87" r="3.97"/>
    </g>
  </g>
  <circle class="cls-14" cx="29.24" cy="12.48" r="47.58"/>
  <circle class="cls-13" cx="50.07" cy="49.22" r="29.42"/>
  <circle class="cls-11" cx="292.45" cy="198.64" r="37.23"/>
  <circle class="cls-9" cx="354.54" cy="158.41" r="62.93"/>
  <g>
    <path class="cls-4" d="m282.81,32.19c3.17,0,3.17,2,6.34,2s3.17-2,6.34-2,3.17,2,6.34,2,3.17-2,6.34-2,3.17,2,6.34,2,3.17-2,6.34-2,3.17,2,6.34,2,3.17-2,6.34-2,3.17,2,6.34,2,3.17-2,6.34-2,3.17,2,6.35,2,3.18-2,6.35-2,3.18,2,6.35,2"/>
    <path class="cls-4" d="m282.81,37.54c3.17,0,3.17,2,6.34,2s3.17-2,6.34-2,3.17,2,6.34,2,3.17-2,6.34-2,3.17,2,6.34,2,3.17-2,6.34-2,3.17,2,6.34,2,3.17-2,6.34-2,3.17,2,6.34,2,3.17-2,6.34-2,3.17,2,6.35,2,3.18-2,6.35-2,3.18,2,6.35,2"/>
    <path class="cls-4" d="m282.81,42.88c3.17,0,3.17,2,6.34,2s3.17-2,6.34-2,3.17,2,6.34,2,3.17-2,6.34-2,3.17,2,6.34,2,3.17-2,6.34-2,3.17,2,6.34,2,3.17-2,6.34-2,3.17,2,6.34,2,3.17-2,6.34-2,3.17,2,6.35,2,3.18-2,6.35-2,3.18,2,6.35,2"/>
    <path class="cls-4" d="m282.81,48.22c3.17,0,3.17,2,6.34,2s3.17-2,6.34-2,3.17,2,6.34,2,3.17-2,6.34-2,3.17,2,6.34,2,3.17-2,6.34-2,3.17,2,6.34,2,3.17-2,6.34-2,3.17,2,6.34,2,3.17-2,6.34-2,3.17,2,6.35,2,3.18-2,6.35-2,3.18,2,6.35,2"/>
    <path class="cls-4" d="m283.53,53.57c3.17,0,3.17,2,6.34,2s3.17-2,6.34-2,3.17,2,6.34,2,3.17-2,6.34-2,3.17,2,6.34,2,3.17-2,6.34-2,3.17,2,6.34,2,3.17-2,6.34-2,3.17,2,6.34,2,3.17-2,6.34-2,3.17,2,6.35,2,3.18-2,6.35-2,3.18,2,6.35,2"/>
    <path class="cls-4" d="m283.53,58.91c3.17,0,3.17,2,6.34,2s3.17-2,6.34-2,3.17,2,6.34,2,3.17-2,6.34-2,3.17,2,6.34,2,3.17-2,6.34-2,3.17,2,6.34,2,3.17-2,6.34-2,3.17,2,6.34,2,3.17-2,6.34-2,3.17,2,6.35,2,3.18-2,6.35-2,3.18,2,6.35,2"/>
    <path class="cls-4" d="m283.53,64.26c3.17,0,3.17,2,6.34,2s3.17-2,6.34-2,3.17,2,6.34,2,3.17-2,6.34-2,3.17,2,6.34,2,3.17-2,6.34-2,3.17,2,6.34,2,3.17-2,6.34-2,3.17,2,6.34,2,3.17-2,6.34-2,3.17,2,6.35,2,3.18-2,6.35-2,3.18,2,6.35,2"/>
  </g>
  <g>
    <path class="cls-4" d="m52.22,223.85c-3.47-2.01-2.47-3.74-5.95-5.74s-4.47-.27-7.95-2.28-2.47-3.74-5.95-5.74-4.48-.27-7.95-2.28-2.47-3.74-5.95-5.74-4.47-.27-7.95-2.28-2.47-3.74-5.95-5.74-4.47-.27-7.95-2.28-2.48-3.74-5.95-5.74-4.47-.27-7.95-2.28-2.48-3.74-5.95-5.75-4.48-.28-7.96-2.28-2.48-3.74-5.96-5.75"/>
    <path class="cls-4" d="m55.6,218c-3.47-2.01-2.47-3.74-5.95-5.74s-4.47-.27-7.95-2.28-2.47-3.74-5.95-5.74-4.48-.27-7.95-2.28-2.47-3.74-5.95-5.74-4.47-.27-7.95-2.28-2.47-3.74-5.95-5.74-4.47-.27-7.95-2.28-2.48-3.74-5.95-5.74-4.47-.27-7.95-2.28-2.48-3.74-5.95-5.75-4.48-.28-7.96-2.28-2.48-3.74-5.96-5.75"/>
    <path class="cls-4" d="m58.98,212.14c-3.47-2.01-2.47-3.74-5.95-5.74s-4.47-.27-7.95-2.28-2.47-3.74-5.95-5.74-4.48-.27-7.95-2.28-2.47-3.74-5.95-5.74-4.47-.27-7.95-2.28-2.47-3.74-5.95-5.74-4.47-.27-7.95-2.28-2.48-3.74-5.95-5.74-4.47-.27-7.95-2.28-2.48-3.74-5.95-5.75-4.48-.28-7.96-2.28-2.48-3.74-5.96-5.75"/>
    <path class="cls-4" d="m62.36,206.29c-3.47-2.01-2.47-3.74-5.95-5.74s-4.47-.27-7.95-2.28-2.47-3.74-5.95-5.74-4.48-.27-7.95-2.28-2.47-3.74-5.95-5.74-4.47-.27-7.95-2.28-2.47-3.74-5.95-5.74-4.47-.27-7.95-2.28-2.48-3.74-5.95-5.74-4.47-.27-7.95-2.28-2.48-3.74-5.95-5.75-4.48-.28-7.96-2.28-2.48-3.74-5.96-5.75"/>
    <path class="cls-4" d="m64.96,199.98c-3.47-2.01-2.47-3.74-5.95-5.74s-4.47-.27-7.95-2.28-2.47-3.74-5.95-5.74-4.48-.27-7.95-2.28-2.47-3.74-5.95-5.74-4.47-.27-7.95-2.28-2.47-3.74-5.95-5.74-4.47-.27-7.95-2.28-2.48-3.74-5.95-5.74-4.47-.27-7.95-2.28-2.48-3.74-5.95-5.75-4.48-.28-7.96-2.28-2.48-3.74-5.96-5.75"/>
    <path class="cls-4" d="m68.34,194.12c-3.47-2.01-2.47-3.74-5.95-5.74s-4.47-.27-7.95-2.28-2.47-3.74-5.95-5.74-4.48-.27-7.95-2.28-2.47-3.74-5.95-5.74-4.47-.27-7.95-2.28-2.47-3.74-5.95-5.74-4.47-.27-7.95-2.28-2.48-3.74-5.95-5.74-4.47-.27-7.95-2.28-2.48-3.74-5.95-5.75-4.48-.28-7.96-2.28-2.48-3.74-5.96-5.75"/>
    <path class="cls-4" d="m71.72,188.27c-3.47-2.01-2.47-3.74-5.95-5.74s-4.47-.27-7.95-2.28-2.47-3.74-5.95-5.74-4.48-.27-7.95-2.28-2.47-3.74-5.95-5.74-4.47-.27-7.95-2.28-2.47-3.74-5.95-5.74-4.47-.27-7.95-2.28-2.48-3.74-5.95-5.74-4.47-.27-7.95-2.28-2.48-3.74-5.95-5.75-4.48-.28-7.96-2.28-2.48-3.74-5.96-5.75"/>
    <path class="cls-4" d="m75.65,181.45c-3.47-2.01-2.47-3.74-5.95-5.74s-4.47-.27-7.95-2.28-2.47-3.74-5.95-5.74-4.48-.27-7.95-2.28-2.47-3.74-5.95-5.74-4.47-.27-7.95-2.28-2.47-3.74-5.95-5.74-4.47-.27-7.95-2.28-2.48-3.74-5.95-5.74-4.47-.27-7.95-2.28-2.48-3.74-5.95-5.75-4.48-.28-7.96-2.28-2.48-3.74-5.96-5.75"/>
    <path class="cls-4" d="m79.59,174.63c-3.47-2.01-2.47-3.74-5.95-5.74s-4.47-.27-7.95-2.28-2.47-3.74-5.95-5.74-4.48-.27-7.95-2.28-2.47-3.74-5.95-5.74-4.47-.27-7.95-2.28-2.47-3.74-5.95-5.74-4.47-.27-7.95-2.28-2.48-3.74-5.95-5.74-4.47-.27-7.95-2.28-2.48-3.74-5.95-5.75-4.48-.28-7.96-2.28-2.48-3.74-5.96-5.75"/>
    <path class="cls-4" d="m83.53,167.81c-3.47-2.01-2.47-3.74-5.95-5.74s-4.47-.27-7.95-2.28-2.47-3.74-5.95-5.74-4.48-.27-7.95-2.28-2.47-3.74-5.95-5.74-4.47-.27-7.95-2.28-2.47-3.74-5.95-5.74-4.47-.27-7.95-2.28-2.48-3.74-5.95-5.74-4.47-.27-7.95-2.28-2.48-3.74-5.95-5.75-4.48-.28-7.96-2.28-2.48-3.74-5.96-5.75"/>
  </g>
  <text class="cls-7" transform="translate(65.26 150.32)"><tspan x="0" y="0">coming soon</tspan></text>
  <text class="cls-15" transform="translate(65.26 148.32)"><tspan x="0" y="0">coming soon</tspan></text>
</svg>