<?xml version="1.0" encoding="UTF-8"?>
<svg id="_レイヤー_2" data-name="レイヤー 2" xmlns="http://www.w3.org/2000/svg" xmlns:xlink="http://www.w3.org/1999/xlink" viewBox="0 0 1046.59 393.65">
  <defs>
    <style>
      .cls-1 {
        fill: #fff;
      }

      .cls-2 {
        fill: url(#_10_dpi_40_-5);
      }

      .cls-3 {
        fill: url(#_10_dpi_40_);
      }

      .cls-4 {
        fill: url(#_10_dpi_40_-4);
      }

      .cls-5 {
        fill: url(#_10_dpi_40_-7);
      }

      .cls-6 {
        fill: none;
      }

      .cls-7 {
        fill: url(#_10_dpi_40_-6);
      }

      .cls-8 {
        fill: url(#_10_dpi_40_-2);
      }

      .cls-9 {
        fill: url(#_10_dpi_40_-3);
      }

      .cls-10 {
        fill: #84a2d4;
      }
    </style>
    <pattern id="_10_dpi_40_" data-name="10 dpi 40%" x="0" y="0" width="28.8" height="28.8" patternTransform="translate(-3133.68 -3057.56) scale(.63)" patternUnits="userSpaceOnUse" viewBox="0 0 28.8 28.8">
      <g>
        <rect class="cls-6" x="0" width="28.8" height="28.8"/>
        <g>
          <path class="cls-10" d="m28.8,31.68c1.59,0,2.88-1.29,2.88-2.88s-1.29-2.88-2.88-2.88-2.88,1.29-2.88,2.88,1.29,2.88,2.88,2.88Z"/>
          <path class="cls-10" d="m14.4,31.68c1.59,0,2.88-1.29,2.88-2.88s-1.29-2.88-2.88-2.88-2.88,1.29-2.88,2.88,1.29,2.88,2.88,2.88Z"/>
          <path class="cls-10" d="m28.8,17.28c1.59,0,2.88-1.29,2.88-2.88s-1.29-2.88-2.88-2.88-2.88,1.29-2.88,2.88,1.29,2.88,2.88,2.88Z"/>
          <path class="cls-10" d="m14.4,17.28c1.59,0,2.88-1.29,2.88-2.88s-1.29-2.88-2.88-2.88-2.88,1.29-2.88,2.88,1.29,2.88,2.88,2.88Z"/>
          <path class="cls-10" d="m7.2,24.48c1.59,0,2.88-1.29,2.88-2.88s-1.29-2.88-2.88-2.88-2.88,1.29-2.88,2.88,1.29,2.88,2.88,2.88Z"/>
          <path class="cls-10" d="m21.6,24.48c1.59,0,2.88-1.29,2.88-2.88s-1.29-2.88-2.88-2.88-2.88,1.29-2.88,2.88,1.29,2.88,2.88,2.88Z"/>
          <path class="cls-10" d="m7.2,10.08c1.59,0,2.88-1.29,2.88-2.88s-1.29-2.88-2.88-2.88-2.88,1.29-2.88,2.88,1.29,2.88,2.88,2.88Z"/>
          <path class="cls-10" d="m21.6,10.08c1.59,0,2.88-1.29,2.88-2.88s-1.29-2.88-2.88-2.88-2.88,1.29-2.88,2.88,1.29,2.88,2.88,2.88Z"/>
        </g>
        <g>
          <path class="cls-10" d="m0,31.68c1.59,0,2.88-1.29,2.88-2.88S1.59,25.92,0,25.92s-2.88,1.29-2.88,2.88S-1.59,31.68,0,31.68Z"/>
          <path class="cls-10" d="m0,17.28c1.59,0,2.88-1.29,2.88-2.88S1.59,11.52,0,11.52s-2.88,1.29-2.88,2.88S-1.59,17.28,0,17.28Z"/>
        </g>
        <g>
          <path class="cls-10" d="m28.8,2.88C30.39,2.88,31.68,1.59,31.68,0s-1.29-2.88-2.88-2.88S25.92-1.59,25.92,0s1.29,2.88,2.88,2.88Z"/>
          <path class="cls-10" d="m14.4,2.88C15.99,2.88,17.28,1.59,17.28,0s-1.29-2.88-2.88-2.88S11.52-1.59,11.52,0s1.29,2.88,2.88,2.88Z"/>
        </g>
        <path class="cls-10" d="m0,2.88C1.59,2.88,2.88,1.59,2.88,0S1.59-2.88,0-2.88-2.88-1.59-2.88,0-1.59,2.88,0,2.88Z"/>
      </g>
    </pattern>
    <pattern id="_10_dpi_40_-2" data-name="10 dpi 40%" patternTransform="translate(-3123.27 -3056.06) scale(.63)" xlink:href="#_10_dpi_40_"/>
    <pattern id="_10_dpi_40_-3" data-name="10 dpi 40%" patternTransform="translate(-3135.18 -3054.06) scale(.63)" xlink:href="#_10_dpi_40_"/>
    <pattern id="_10_dpi_40_-4" data-name="10 dpi 40%" patternTransform="translate(-3135.18 -3054.06) scale(.63)" xlink:href="#_10_dpi_40_"/>
    <pattern id="_10_dpi_40_-5" data-name="10 dpi 40%" patternTransform="translate(-3135.18 -3054.06) scale(.63)" xlink:href="#_10_dpi_40_"/>
    <pattern id="_10_dpi_40_-6" data-name="10 dpi 40%" patternTransform="translate(-3135.18 -3052.06) scale(.63)" xlink:href="#_10_dpi_40_"/>
    <pattern id="_10_dpi_40_-7" data-name="10 dpi 40%" patternTransform="translate(-3135.18 -3052.06) scale(.63)" xlink:href="#_10_dpi_40_"/>
  </defs>
  <g id="_レイヤー_1-2" data-name="レイヤー 1">
    <path class="cls-1" d="m906.91.79c-77.15,0-139.69,86.51-139.69,193.24s62.54,193.24,139.69,193.24,139.69-86.51,139.69-193.24S984.05.79,906.91.79Zm2.11,345.59c-53.99,0-97.75-68.25-97.75-152.45s43.76-152.45,97.75-152.45,97.75,68.25,97.75,152.45-43.76,152.45-97.75,152.45Z"/>
    <path class="cls-1" d="m551.91.79c-77.15,0-139.69,86.51-139.69,193.24s62.54,193.24,139.69,193.24,139.69-86.51,139.69-193.24S629.05.79,551.91.79Zm2.11,345.59c-53.99,0-97.75-68.25-97.75-152.45s43.76-152.45,97.75-152.45,97.75,68.25,97.75,152.45-43.76,152.45-97.75,152.45Z"/>
    <ellipse class="cls-3" cx="553.37" cy="192.86" rx="97.75" ry="152.45"/>
    <ellipse class="cls-8" cx="908.87" cy="194.36" rx="97.75" ry="152.45"/>
    <g>
      <path class="cls-9" d="m907.89,1.44l-2.3.36c.44,0,.87-.02,1.31-.02.33,0,.66.01.99.02,0-.12,0-.24,0-.36Z"/>
      <path class="cls-4" d="m767.22,195.02c0-92.16,46.64-169.23,109.04-188.56l-237.19,37.63c31.98,35.41,52.47,89.86,52.47,150.93,0,72.15-28.59,135.05-70.94,168.24l267.89,23.32c-68.44-12.47-121.27-93.48-121.27-191.56Z"/>
      <path class="cls-2" d="m907.58,388.24l.31.03v-.03c-.1,0-.21,0-.31,0Z"/>
    </g>
    <path class="cls-1" d="m196.24,354.2l-66-7c-11.09-16.27-32.53-66.33-33.33-128.15-.84-65.21,28.39-119.8,39.33-135.85l60-12c-10.52,13.06-50.93,75.67-49.51,147.85,1.32,67.11,38.46,121.45,49.51,135.15Z"/>
    <g>
      <path class="cls-7" d="m551.98,0l-12.79,2.58c4.17-.52,8.39-.8,12.65-.8.05,0,.09,0,.14,0,0-.6,0-1.19,0-1.79Z"/>
      <path class="cls-5" d="m551.98,388.25s-.09,0-.13,0c-77.15,0-139.69-86.51-139.69-193.24,0-93.37,47.87-171.27,111.51-189.3L28.12,105.83C21.67,117.29,1.04,156.87.04,216.18c-1.1,64.93,22.08,108.71,28.08,119.38,174.62,19.36,349.25,38.72,523.87,58.08,0-1.82,0-3.61,0-5.39Z"/>
    </g>
    <path class="cls-1" d="m196.24,354.2l-66-7c-11.09-16.27-32.53-66.33-33.33-128.15-.84-65.21,28.39-119.8,39.33-135.85l60-12c-10.52,13.06-50.93,75.67-49.51,147.85,1.32,67.11,38.46,121.45,49.51,135.15Z"/>
  </g>
</svg>