<?xml version="1.0" encoding="UTF-8"?>
<svg id="_レイヤー_2" data-name="レイヤー 2" xmlns="http://www.w3.org/2000/svg" viewBox="0 0 1006.58 150.8">
  <defs>
    <style>
      .cls-1 {
        fill: none;
        stroke: #84a2d4;
        stroke-miterlimit: 10;
        stroke-width: 2px;
      }

      .cls-2 {
        fill: #fff;
      }

      .cls-3 {
        fill: #84a2d4;
      }
    </style>
  </defs>
  <g id="_レイヤー_1-2" data-name="レイヤー 1">
    <path class="cls-3" d="m94.24,78.64l32.1-39.35c1.66-2.03.21-5.08-2.41-5.08h-38.66c-.91,0-1.77.4-2.37,1.09l-34.74,40.64c-.48.57-.75,1.28-.75,2.03v4.04s0,38.98,0,38.98c0,1.65,2.05,2.41,3.12,1.16l8.89-10.3c1.22-1.42,3.48-1.17,4.37.48l19.27,35.84c.54,1.01,1.6,1.64,2.74,1.64h42.48c2.4,0,3.9-2.6,2.69-4.68l-36.98-63.45c-.56-.96-.47-2.17.24-3.03Z"/>
    <path class="cls-3" d="m232.44,139.74c-.65.5-.29,3.46,1.35,5.75.56.78,1.3,2.5,3.14,2.44,3.09-.1,25.17-1.69,33.94-2.33,1.89-.14,3.22-1.93,2.81-3.78-1.71-7.69-2.68-11.55-4.32-20.45-1.3-7.05-2.73-14.82-3.59-24.89-1.12-13.12-.66-22.93,0-37.12.37-7.89.89-15.08,1.47-21.46.17-1.84-1.29-3.41-3.13-3.39-11.27.12-22.53.24-33.8.37-1.67.02-3.03,1.35-3.08,3.02l-.05,1.8c5.19,2.61,7.38,5.35,11.26,9.62,9.99,11.01,15.07,24.66,15.12,41.79,0,3.6.22,8.48-.96,14.82-1.32,7.1-3.14,13.22-7.27,19.59-4.89,7.56-6.77,9.47-12.89,14.23Z"/>
    <path class="cls-3" d="m391.07,124.79v21.81c0,1.77-1.39,3.2-3.11,3.2h-91.13c-1.72,0-3.11-1.43-3.11-3.2v-20.34c0-.71.23-1.4.66-1.96l42.45-56.07c1.36-1.79.03-4.35-2.22-4.28-2.57.08-4.46.13-5.66.13h-28.32c-1.72,0-3.11-1.43-3.11-3.2v-21.25c0-1.76,1.4-3.2,3.11-3.2h85.6c1.72,0,3.11,1.43,3.11,3.2v19.55c0,.72-.24,1.42-.67,1.98l-43.35,56.26c-1.37,1.77-.07,4.34,2.16,4.3h.18c1.15-.08,2.2-.11,3.14-.11h37.17c1.72,0,3.11,1.43,3.11,3.2Z"/>
    <path class="cls-3" d="m475.53,96c0-2.1-.05-4.05-.15-5.85h-25.7c-.08,1.39-.12,2.84-.12,4.37,0,2.68.07,5.13.21,7.35h25.56c.14-1.84.21-3.79.21-5.87Z"/>
    <path class="cls-3" d="m756.72,41.82l-32.96,104.16c-.41,1.29-1.61,2.17-2.97,2.17h-26.42c-1.44,0-2.69-.98-3.02-2.38l-10.92-45.17c-.76-3.16-5.25-3.18-6.04-.03l-11.41,45.23c-.35,1.38-1.59,2.35-3.02,2.35h-26.13c-1.35,0-2.55-.87-2.96-2.16l-33.59-104.16c-.65-2.01.85-4.07,2.96-4.07h35.88c1.41,0,2.64.94,3,2.3l10.87,40.33c.83,3.09,5.22,3.06,6.02-.04l10.34-40.25c.35-1.38,1.59-2.34,3.01-2.34h27.2c1.42,0,2.67.97,3.02,2.35l10.24,40.41c.78,3.09,5.14,3.15,6.01.08l11.48-40.57c.38-1.34,1.6-2.26,2.99-2.26h23.45c2.1,0,3.6,2.04,2.97,4.05Z"/>
    <path class="cls-3" d="m841.44,108.71l34.02,2.29c2.01.14,3.36,2.12,2.76,4.05-2.88,9.23-8.64,17.21-17.28,23.94-9.81,7.63-23.06,11.45-39.78,11.45-18.6,0-33.43-5.37-44.5-16.12s-16.61-24.08-16.61-40,5.46-30.43,16.39-41.79c10.92-11.36,25.51-17.04,43.74-17.04s31.93,5.36,42.82,16.06c10.89,10.71,16.33,25.29,16.33,43.74,0,.88-.01,1.96-.04,3.24-.03,1.7-1.42,3.06-3.11,3.06h-67.6c-1.82,0-3.25,1.56-3.1,3.37.42,5.27,1.6,9.3,3.52,12.09,2.31,3.36,6.73,5.05,13.24,5.05,8.52,0,13.87-3.71,16.04-11.14.41-1.4,1.7-2.35,3.16-2.25Zm-8.77-28.83c1.81,0,3.25-1.54,3.11-3.34-.44-5.63-1.89-9.53-4.35-11.69-2.92-2.57-6.54-3.85-10.87-3.85-9.29,0-14.36,5.18-15.22,15.53-.15,1.81,1.29,3.36,3.1,3.36h24.23Z"/>
    <path class="cls-3" d="m915.51,148.15h-18.92c-1.72,0-3.11-1.39-3.11-3.11V3.11c0-1.72,1.39-3.11,3.11-3.11h36.43c1.72,0,3.11,1.39,3.11,3.11v38.65c0,2.75,3.32,4.16,5.28,2.23,5.75-5.67,13.43-8.5,23.05-8.5,9.12,0,16.86,2.39,23.23,7.16,6.37,4.78,11.11,11.6,14.22,20.46,3.11,8.86,4.67,18.18,4.67,27.95,0,17.8-3.98,32.14-11.94,43.03-7.96,10.89-19.83,16.33-35.6,16.33-13.75,0-24.58-4.55-32.51-13.64-1.52-1.74-4.32-1.24-5.21.89-1.06,2.53-1.99,5.26-2.81,8.19-.38,1.35-1.6,2.28-3,2.28Zm20.63-41.13c0,10.85,4.2,16.28,12.59,16.28,4.56,0,8.05-1.97,10.47-5.92,2.42-3.94,3.64-12.06,3.64-24.37,0-13.39-1.38-21.8-4.12-25.23-2.75-3.44-6.15-5.16-10.2-5.16-3.18,0-6.04,1.23-8.57,3.69-2.53,2.46-3.8,6.04-3.8,10.74v29.96Z"/>
    <path class="cls-2" d="m191.16,149.8c-17.87,0-32.02-5.34-42.44-16.01-10.42-10.67-15.63-24.71-15.63-42.11s5.34-31.92,16.01-42.24c10.67-10.32,24.94-15.48,42.82-15.48s33.1,5.5,43.09,16.51c9.99,11.01,14.98,25.07,14.98,42.19s-5.37,31.34-16.12,41.66c-10.74,10.32-24.98,15.48-42.71,15.48Zm.43-23.88c6.22,0,10.38-3.01,12.48-9.01,2.1-6.01,3.15-14.23,3.15-24.66,0-14.33-1.39-23.68-4.18-28.07-2.79-4.39-6.57-6.59-11.34-6.59-5.79,0-9.79,2.9-11.99,8.69-2.21,5.79-3.31,13.76-3.31,23.92,0,13.78,1.1,23.18,3.31,28.2,2.21,5.02,6.17,7.53,11.88,7.53Z"/>
    <path class="cls-2" d="m477.64,108.69c-1.52-.05-2.84,1.01-3.15,2.49-.43,2.12-.95,4.06-1.56,5.8-2.1,6-6.26,9-12.48,9-5.72,0-9.68-2.51-11.88-7.52-2.21-5.01-3.31-14.39-3.31-28.14,0-10.13,1.1-18.09,3.31-23.86,2.21-5.78,6.2-8.67,11.99-8.67,4.78,0,8.56,2.19,11.34,6.57,2.78,4.38,4.18,13.72,4.18,28.01,0,3.07-.09,5.94-.28,8.62h39.76c1.64,0,3-1.28,3.11-2.91.12-1.73.17-3.49.17-5.3,0-17.09-4.99-31.12-14.98-42.1-9.99-10.98-24.35-16.47-43.09-16.47s-32.14,5.15-42.82,15.44c-10.67,10.3-16.01,24.34-16.01,42.14s5.21,31.37,15.63,42.02c10.42,10.65,24.56,15.98,42.44,15.98s31.96-5.15,42.71-15.44c5.97-5.72,10.28-12.54,12.93-20.46.66-1.98-.77-4.03-2.85-4.1l-35.16-1.11Z"/>
    <path class="cls-2" d="m43.87,82.01l-.09-44.69c0-1.72-1.4-3.11-3.11-3.11H4.11c-1.72,0-3.11,1.39-3.11,3.11v109.36c0,1.72,1.39,3.11,3.11,3.11h36.65c1.72,0,3.11-1.39,3.11-3.11v-64.68Z"/>
    <path class="cls-1" d="m191.16,149.8c-17.87,0-32.02-5.34-42.44-16.01-10.42-10.67-15.63-24.71-15.63-42.11s5.34-31.92,16.01-42.24c10.67-10.32,24.94-15.48,42.82-15.48s33.1,5.5,43.09,16.51c9.99,11.01,14.98,25.07,14.98,42.19s-5.37,31.34-16.12,41.66c-10.74,10.32-24.98,15.48-42.71,15.48Zm.43-23.88c6.22,0,10.38-3.01,12.48-9.01,2.1-6.01,3.15-14.23,3.15-24.66,0-14.33-1.39-23.68-4.18-28.07-2.79-4.39-6.57-6.59-11.34-6.59-5.79,0-9.79,2.9-11.99,8.69-2.21,5.79-3.31,13.76-3.31,23.92,0,13.78,1.1,23.18,3.31,28.2,2.21,5.02,6.17,7.53,11.88,7.53Z"/>
    <path class="cls-1" d="m477.64,108.69c-1.52-.05-2.84,1.01-3.15,2.49-.43,2.12-.95,4.06-1.56,5.8-2.1,6-6.26,9-12.48,9-5.72,0-9.68-2.51-11.88-7.52-2.21-5.01-3.31-14.39-3.31-28.14,0-10.13,1.1-18.09,3.31-23.86,2.21-5.78,6.2-8.67,11.99-8.67,4.78,0,8.56,2.19,11.34,6.57,2.78,4.38,4.18,13.72,4.18,28.01,0,3.07-.09,5.94-.28,8.62h39.76c1.64,0,3-1.28,3.11-2.91.12-1.73.17-3.49.17-5.3,0-17.09-4.99-31.12-14.98-42.1-9.99-10.98-24.35-16.47-43.09-16.47s-32.14,5.15-42.82,15.44c-10.67,10.3-16.01,24.34-16.01,42.14s5.21,31.37,15.63,42.02c10.42,10.65,24.56,15.98,42.44,15.98s31.96-5.15,42.71-15.44c5.97-5.72,10.28-12.54,12.93-20.46.66-1.98-.77-4.03-2.85-4.1l-35.16-1.11Z"/>
    <path class="cls-1" d="m43.87,82.01l-.09-44.69c0-1.72-1.4-3.11-3.11-3.11H4.11c-1.72,0-3.11,1.39-3.11,3.11v109.36c0,1.72,1.39,3.11,3.11,3.11h36.65c1.72,0,3.11-1.39,3.11-3.11v-64.68Z"/>
  </g>
</svg>