<?xml version="1.0" encoding="UTF-8"?>
<svg id="_レイヤー_1" data-name="レイヤー 1" xmlns="http://www.w3.org/2000/svg" viewBox="0 0 20 20">
  <path d="m17.89,5.69c.72,1.32,1.1,2.81,1.1,4.31,0,3.2-1.7,6.16-4.47,7.77l2.75-7.94c.51-1.28.68-2.31.68-3.22,0-.31-.02-.62-.06-.93m-6.65.09c.34-.02.69-.05,1.03-.09.48-.06.43-.78-.06-.75,0,0-1.46.11-2.4.11-.89,0-2.38-.12-2.38-.12-.49-.02-.55.71-.06.74,0,0,.45.05.94.07l1.4,3.84-1.98,5.9-3.27-9.72c.34-.02.69-.04,1.03-.08.49-.06.43-.78-.05-.75,0,0-1.45.11-2.39.11-.17,0-.36,0-.57-.01C4.09,2.62,6.86,1.01,10,1.01c2.34,0,4.47.89,6.07,2.36-.04,0-.08,0-.12,0-.88,0-1.51.77-1.51,1.6,0,.74.43,1.37.88,2.11.34.6.74,1.37.74,2.48,0,.76-.3,1.66-.68,2.9l-.9,2.99-3.25-9.68s0,.01,0,.01Zm-1.24,13.21c-.86,0-1.72-.12-2.54-.36l2.7-7.84,2.76,7.57s.04.08.06.12c-.96.34-1.97.51-2.98.51M1.01,10c0-1.26.26-2.51.78-3.66l4.29,11.75c-3.1-1.5-5.07-4.65-5.07-8.09M10,0C4.49,0,0,4.49,0,10s4.49,10,10,10,10-4.49,10-10S15.51,0,10,0"/>
</svg>