<?xml version="1.0" encoding="UTF-8"?>
<svg id="_レイヤー_1" data-name="レイヤー 1" xmlns="http://www.w3.org/2000/svg" viewBox="0 0 18 18">
  <path d="m0,0h18v18H0V0Zm16.52,13.71c-.13-.82-.67-1.51-2.25-2.15-.55-.26-1.17-.44-1.35-.85-.07-.25-.08-.38-.03-.53.11-.48.69-.63,1.14-.49.29.09.56.31.73.68q.77-.51,1.32-.84c-.2-.31-.3-.45-.44-.59-.47-.53-1.1-.8-2.13-.77l-.53.07c-.51.12-.99.4-1.28.75-.86.97-.61,2.65.43,3.35,1.02.77,2.52.93,2.71,1.65.18.88-.65,1.16-1.48,1.06-.61-.14-.94-.44-1.32-1l-1.37.79c.16.36.34.52.61.83,1.31,1.32,4.57,1.25,5.15-.75.02-.07.18-.53.06-1.24,0,0,.03.05.03.05Zm-6.74-5.43h-1.69c0,1.45,0,2.9,0,4.35,0,.92.05,1.77-.1,2.03-.25.52-.89.45-1.18.36-.3-.15-.45-.35-.62-.64-.05-.08-.08-.15-.1-.15l-1.37.84c.23.47.56.88.99,1.14.64.38,1.5.51,2.4.31.59-.17,1.1-.52,1.36-1.06.38-.7.3-1.55.3-2.51,0-1.54,0-3.08,0-4.64,0,0,0-.04,0-.04Z"/>
</svg>