<?xml version="1.0" encoding="UTF-8"?>
<svg id="_レイヤー_1" data-name="レイヤー 1" xmlns="http://www.w3.org/2000/svg" viewBox="0 0 22 22">
  <defs>
    <style>
      .cls-1 {
        fill-rule: evenodd;
      }
    </style>
  </defs>
  <path class="cls-1" d="m4,0C1.79,0,0,1.79,0,4v14c0,2.21,1.79,4,4,4h14c2.21,0,4-1.79,4-4V4c0-2.21-1.79-4-4-4H4Zm12.57,5.5h2v9.79c-.57.2-1.95.59-2.99.59-1.29,0-3.58-.66-3.58-3.77,0-2.69,2.24-3.7,4.57-3.7v-2.91Zm0,4.62v4c-.83,0-2.5-.21-2.5-2s1.67-2,2.5-2Zm-11.07-3.24h-2l2.5,4.5-2.5,4.5h2l2-3.5,2,3.5h2l-2.5-4.5,2.5-4.5h-2l-2,3.5-2-3.5Z"/>
</svg>