<svg xmlns="http://www.w3.org/2000/svg" fill="none" viewBox="0 0 24 24" height="24" width="24"><path fill="#000000" fill-rule="evenodd" d="M5 1a4 4 0 0 0-4 4v14a4 4 0 0 0 4 4h14a4 4 0 0 0 4-4V5a4 4 0 0 0-4-4H5Zm.5 6H9a3.5 3.5 0 1 1 0 7H7.5v3h-2V7Zm2 5H9a1.5 1.5 0 0 0 0-3H7.5v3Zm10.425-.366c-.857-.193-1.765-.345-2.423-.296-.333.024-.758.128-.33.472.353.282.77.459 1.188.635.43.182.862.365 1.228.666.511.42.912 1.032.912 1.889 0 .855-.404 1.51-1.048 1.9-.569.344-1.256.442-1.851.457-.962.024-2.022-.168-2.812-.362v-2.068c.728.208 1.858.453 2.762.43.47-.011.747-.097.873-.173.2-.12.018-.426-.105-.527-.352-.29-.775-.468-1.2-.647-.42-.177-.842-.355-1.198-.64-.51-.41-.921-1.015-.921-1.87 0-.695.29-1.28.82-1.665.472-.34 1.044-.456 1.533-.492.825-.061 1.777.082 2.572.245v2.046Z" clip-rule="evenodd"></path></svg>